<?xml version="1.0" encoding="UTF-8" standalone="no"?>
<svg
   fill-opacity="1"
   color-rendering="auto"
   color-interpolation="auto"
   text-rendering="auto"
   stroke="#000000"
   stroke-linecap="square"
   width="860.29102"
   stroke-miterlimit="10"
   shape-rendering="auto"
   stroke-opacity="1"
   fill="#000000"
   stroke-dasharray="none"
   font-weight="normal"
   stroke-width="1"
   height="434.19147"
   font-family="Dialog"
   font-style="normal"
   stroke-linejoin="miter"
   font-size="12px"
   stroke-dashoffset="0"
   image-rendering="auto"
   version="1.1"
   id="svg253"
   xmlns="http://www.w3.org/2000/svg"
   xmlns:svg="http://www.w3.org/2000/svg">
  <!--Generated by ySVG 2.6-->
  <defs
     id="genericDefs" />
  <g
     id="g251"
     transform="translate(-739.5,-582.40419)">
    <defs
       id="defs1">
      <linearGradient
         x1="144.5"
         gradientUnits="userSpaceOnUse"
         x2="144.5"
         y1="125.2305"
         y2="155.7305"
         id="linearGradient1"
         spreadMethod="pad">
        <stop
           stop-opacity="1"
           stop-color="rgb(204,230,217)"
           offset="0%"
           id="stop3" />
        <stop
           stop-opacity="1"
           stop-color="rgb(92,173,133)"
           offset="100%"
           id="stop5" />
      </linearGradient>
      <linearGradient
         x1="144.5"
         gradientUnits="userSpaceOnUse"
         x2="144.5"
         y1="215.2305"
         y2="245.7305"
         id="linearGradient2"
         spreadMethod="pad">
        <stop
           stop-opacity="1"
           stop-color="rgb(204,242,242)"
           offset="0%"
           id="stop8" />
        <stop
           stop-opacity="1"
           stop-color="rgb(92,214,214)"
           offset="100%"
           id="stop10" />
      </linearGradient>
      <linearGradient
         x1="144.5"
         gradientUnits="userSpaceOnUse"
         x2="144.5"
         y1="35.230499"
         y2="65.730499"
         id="linearGradient3"
         spreadMethod="pad">
        <stop
           stop-opacity="1"
           stop-color="rgb(204,242,242)"
           offset="0%"
           id="stop13" />
        <stop
           stop-opacity="1"
           stop-color="rgb(92,214,214)"
           offset="100%"
           id="stop15" />
      </linearGradient>
      <linearGradient
         x1="289.5"
         gradientUnits="userSpaceOnUse"
         x2="289.5"
         y1="125.2305"
         y2="155.7305"
         id="linearGradient4"
         spreadMethod="pad">
        <stop
           stop-opacity="1"
           stop-color="rgb(204,242,242)"
           offset="0%"
           id="stop18" />
        <stop
           stop-opacity="1"
           stop-color="rgb(92,214,214)"
           offset="100%"
           id="stop20" />
      </linearGradient>
      <linearGradient
         x1="289.5"
         gradientUnits="userSpaceOnUse"
         x2="289.5"
         y1="215.2305"
         y2="245.7305"
         id="linearGradient5"
         spreadMethod="pad">
        <stop
           stop-opacity="1"
           stop-color="rgb(204,230,217)"
           offset="0%"
           id="stop23" />
        <stop
           stop-opacity="1"
           stop-color="rgb(92,173,133)"
           offset="100%"
           id="stop25" />
      </linearGradient>
      <linearGradient
         x1="289.5"
         gradientUnits="userSpaceOnUse"
         x2="289.5"
         y1="35.230499"
         y2="65.730499"
         id="linearGradient6"
         spreadMethod="pad">
        <stop
           stop-opacity="1"
           stop-color="rgb(204,230,217)"
           offset="0%"
           id="stop28" />
        <stop
           stop-opacity="1"
           stop-color="rgb(92,173,133)"
           offset="100%"
           id="stop30" />
      </linearGradient>
      <linearGradient
         x1="434.5"
         gradientUnits="userSpaceOnUse"
         x2="434.5"
         y1="125.2305"
         y2="155.7305"
         id="linearGradient7"
         spreadMethod="pad">
        <stop
           stop-opacity="1"
           stop-color="rgb(204,230,217)"
           offset="0%"
           id="stop33" />
        <stop
           stop-opacity="1"
           stop-color="rgb(92,173,133)"
           offset="100%"
           id="stop35" />
      </linearGradient>
      <linearGradient
         x1="434.5"
         gradientUnits="userSpaceOnUse"
         x2="434.5"
         y1="215.2305"
         y2="245.7305"
         id="linearGradient8"
         spreadMethod="pad">
        <stop
           stop-opacity="1"
           stop-color="rgb(204,230,217)"
           offset="0%"
           id="stop38" />
        <stop
           stop-opacity="1"
           stop-color="rgb(92,173,133)"
           offset="100%"
           id="stop40" />
      </linearGradient>
      <linearGradient
         x1="434.5"
         gradientUnits="userSpaceOnUse"
         x2="434.5"
         y1="35.230499"
         y2="65.730499"
         id="linearGradient9"
         spreadMethod="pad">
        <stop
           stop-opacity="1"
           stop-color="rgb(204,230,217)"
           offset="0%"
           id="stop43" />
        <stop
           stop-opacity="1"
           stop-color="rgb(92,173,133)"
           offset="100%"
           id="stop45" />
      </linearGradient>
      <clipPath
         clipPathUnits="userSpaceOnUse"
         id="clipPath1">
        <path
           d="M 0,0 H 1857 V 1623 H 0 Z"
           id="path48" />
      </clipPath>
      <clipPath
         clipPathUnits="userSpaceOnUse"
         id="clipPath2">
        <path
           d="M -378,-389 H 860 V 693 H -378 Z"
           id="path51" />
      </clipPath>
    </defs>
    <g
       fill="#f5f5f5"
       text-rendering="geometricPrecision"
       shape-rendering="geometricPrecision"
       transform="matrix(1.5,0,0,1.5,567,583.5)"
       stroke="#f5f5f5"
       id="g57">
      <rect
         x="129.5"
         y="-0.2305"
         clip-path="url(#clipPath2)"
         width="115"
         rx="4"
         ry="4"
         height="288.46091"
         stroke="none"
         id="rect55" />
    </g>
    <g
       fill="#ebebeb"
       text-rendering="geometricPrecision"
       shape-rendering="geometricPrecision"
       transform="matrix(1.5,0,0,1.5,567,583.5)"
       stroke="#ebebeb"
       id="g61">
      <rect
         x="129.5"
         width="115"
         height="21.460899"
         y="-0.2305"
         clip-path="url(#clipPath2)"
         stroke="none"
         id="rect59" />
    </g>
    <g
       font-size="15px"
       stroke-linecap="butt"
       transform="matrix(1.5,0,0,1.5,567,583.5)"
       text-rendering="geometricPrecision"
       font-family="sans-serif"
       shape-rendering="geometricPrecision"
       stroke-miterlimit="1.45"
       id="g67">
      <text
         x="205.65919"
         xml:space="preserve"
         y="15.6929"
         clip-path="url(#clipPath2)"
         stroke="none"
         id="text63">UD 1</text>
      <rect
         x="129.5"
         y="-0.2305"
         clip-path="url(#clipPath2)"
         fill="none"
         width="115"
         stroke-dasharray="6, 2"
         rx="4"
         ry="4"
         height="288.46091"
         id="rect65" />
    </g>
    <g
       fill="#339966"
       text-rendering="geometricPrecision"
       shape-rendering="geometricPrecision"
       transform="matrix(1.5,0,0,1.5,567,583.5)"
       stroke="#339966"
       id="g77">
      <path
         d="m 144.5,153.7305 h 85 v 19.5 q 0,10 -10,10 h -65 q -10,0 -10,-10 z"
         stroke="none"
         clip-path="url(#clipPath2)"
         id="path69" />
      <path
         fill="url(#linearGradient1)"
         d="m 144.5,136.2305 q 0,-10 10,-10 h 65 q 10,0 10,10 v 18.5 h -85 z"
         clip-path="url(#clipPath2)"
         stroke="none"
         id="path71"
         style="fill:url(#linearGradient1)" />
      <path
         fill="none"
         d="m 146.5,136.2305 q 0,-8 8,-8 h 65 q 8,0 8,8 v 37 q 0,8 -8,8 h -65 q -8,0 -8,-8 z"
         stroke-width="2"
         clip-path="url(#clipPath2)"
         stroke="#e0f0e8"
         id="path73" />
      <path
         fill="none"
         d="m 146.5,136.2305 q 0,-8 8,-8 h 65 q 8,0 8,8 v 37 q 0,8 -8,8 h -65 q -8,0 -8,-8 z"
         clip-path="url(#clipPath2)"
         id="path75" />
    </g>
    <g
       text-rendering="geometricPrecision"
       stroke-miterlimit="1.45"
       shape-rendering="geometricPrecision"
       font-family="sans-serif"
       transform="matrix(1.5,0,0,1.5,567,583.5)"
       stroke-linecap="butt"
       id="g83">
      <text
         x="163.7119"
         xml:space="preserve"
         y="151.90041"
         clip-path="url(#clipPath2)"
         stroke="none"
         id="text79">Shard 2</text>
      <text
         x="161.8076"
         xml:space="preserve"
         y="165.86909"
         clip-path="url(#clipPath2)"
         stroke="none"
         id="text81">Follower</text>
    </g>
    <g
       fill="#33cccc"
       text-rendering="geometricPrecision"
       shape-rendering="geometricPrecision"
       transform="matrix(1.5,0,0,1.5,567,583.5)"
       stroke="#33cccc"
       id="g93">
      <path
         d="m 144.5,243.7305 h 85 v 19.5 q 0,10 -10,10 h -65 q -10,0 -10,-10 z"
         stroke="none"
         clip-path="url(#clipPath2)"
         id="path85" />
      <path
         fill="url(#linearGradient2)"
         d="m 144.5,226.2305 q 0,-10 10,-10 h 65 q 10,0 10,10 v 18.5 h -85 z"
         clip-path="url(#clipPath2)"
         stroke="none"
         id="path87"
         style="fill:url(#linearGradient2)" />
      <path
         fill="none"
         d="m 146.5,226.2305 q 0,-8 8,-8 h 65 q 8,0 8,8 v 37 q 0,8 -8,8 h -65 q -8,0 -8,-8 z"
         stroke-width="2"
         clip-path="url(#clipPath2)"
         stroke="#e0f7f7"
         id="path89" />
      <path
         fill="none"
         d="m 146.5,226.2305 q 0,-8 8,-8 h 65 q 8,0 8,8 v 37 q 0,8 -8,8 h -65 q -8,0 -8,-8 z"
         clip-path="url(#clipPath2)"
         id="path91" />
    </g>
    <g
       text-rendering="geometricPrecision"
       stroke-miterlimit="1.45"
       shape-rendering="geometricPrecision"
       font-family="sans-serif"
       transform="matrix(1.5,0,0,1.5,567,583.5)"
       stroke-linecap="butt"
       id="g99">
      <text
         x="163.7119"
         xml:space="preserve"
         y="241.90041"
         clip-path="url(#clipPath2)"
         stroke="none"
         id="text95">Shard 3</text>
      <text
         x="166.3223"
         xml:space="preserve"
         y="255.86909"
         clip-path="url(#clipPath2)"
         stroke="none"
         id="text97">Leader</text>
    </g>
    <g
       fill="#33cccc"
       text-rendering="geometricPrecision"
       shape-rendering="geometricPrecision"
       transform="matrix(1.5,0,0,1.5,567,583.5)"
       stroke="#33cccc"
       id="g109">
      <path
         d="m 144.5,63.7305 h 85 v 19.5 q 0,10 -10,10 h -65 q -10,0 -10,-10 z"
         stroke="none"
         clip-path="url(#clipPath2)"
         id="path101" />
      <path
         fill="url(#linearGradient3)"
         d="m 144.5,46.2305 q 0,-10 10,-10 h 65 q 10,0 10,10 v 18.5 h -85 z"
         clip-path="url(#clipPath2)"
         stroke="none"
         id="path103"
         style="fill:url(#linearGradient3)" />
      <path
         fill="none"
         d="m 146.5,46.2305 q 0,-8 8,-8 h 65 q 8,0 8,8 v 37 q 0,8 -8,8 h -65 q -8,0 -8,-8 z"
         stroke-width="2"
         clip-path="url(#clipPath2)"
         stroke="#e0f7f7"
         id="path105" />
      <path
         fill="none"
         d="m 146.5,46.2305 q 0,-8 8,-8 h 65 q 8,0 8,8 v 37 q 0,8 -8,8 h -65 q -8,0 -8,-8 z"
         clip-path="url(#clipPath2)"
         id="path107" />
    </g>
    <g
       text-rendering="geometricPrecision"
       stroke-miterlimit="1.45"
       shape-rendering="geometricPrecision"
       font-family="sans-serif"
       transform="matrix(1.5,0,0,1.5,567,583.5)"
       stroke-linecap="butt"
       id="g115">
      <text
         x="163.7119"
         xml:space="preserve"
         y="61.900398"
         clip-path="url(#clipPath2)"
         stroke="none"
         id="text111">Shard 1</text>
      <text
         x="166.3223"
         xml:space="preserve"
         y="75.869102"
         clip-path="url(#clipPath2)"
         stroke="none"
         id="text113">Leader</text>
    </g>
    <g
       fill="#f5f5f5"
       text-rendering="geometricPrecision"
       shape-rendering="geometricPrecision"
       transform="matrix(1.5,0,0,1.5,567,583.5)"
       stroke="#f5f5f5"
       id="g121">
      <rect
         x="274.5"
         y="-0.2305"
         clip-path="url(#clipPath2)"
         width="115"
         rx="4"
         ry="4"
         height="288.46091"
         stroke="none"
         id="rect117" />
      <rect
         x="274.5"
         y="-0.2305"
         clip-path="url(#clipPath2)"
         fill="#ebebeb"
         width="115"
         height="21.460899"
         stroke="none"
         id="rect119" />
    </g>
    <g
       font-size="15px"
       stroke-linecap="butt"
       transform="matrix(1.5,0,0,1.5,567,583.5)"
       text-rendering="geometricPrecision"
       font-family="sans-serif"
       shape-rendering="geometricPrecision"
       stroke-miterlimit="1.45"
       id="g127">
      <text
         x="350.65921"
         xml:space="preserve"
         y="15.6929"
         clip-path="url(#clipPath2)"
         stroke="none"
         id="text123">UD 2</text>
      <rect
         x="274.5"
         y="-0.2305"
         clip-path="url(#clipPath2)"
         fill="none"
         width="115"
         stroke-dasharray="6, 2"
         rx="4"
         ry="4"
         height="288.46091"
         id="rect125" />
    </g>
    <g
       fill="#33cccc"
       text-rendering="geometricPrecision"
       shape-rendering="geometricPrecision"
       transform="matrix(1.5,0,0,1.5,567,583.5)"
       stroke="#33cccc"
       id="g137">
      <path
         d="m 289.5,153.7305 h 85 v 19.5 q 0,10 -10,10 h -65 q -10,0 -10,-10 z"
         stroke="none"
         clip-path="url(#clipPath2)"
         id="path129" />
      <path
         fill="url(#linearGradient4)"
         d="m 289.5,136.2305 q 0,-10 10,-10 h 65 q 10,0 10,10 v 18.5 h -85 z"
         clip-path="url(#clipPath2)"
         stroke="none"
         id="path131"
         style="fill:url(#linearGradient4)" />
      <path
         fill="none"
         d="m 291.5,136.2305 q 0,-8 8,-8 h 65 q 8,0 8,8 v 37 q 0,8 -8,8 h -65 q -8,0 -8,-8 z"
         stroke-width="2"
         clip-path="url(#clipPath2)"
         stroke="#e0f7f7"
         id="path133" />
      <path
         fill="none"
         d="m 291.5,136.2305 q 0,-8 8,-8 h 65 q 8,0 8,8 v 37 q 0,8 -8,8 h -65 q -8,0 -8,-8 z"
         clip-path="url(#clipPath2)"
         id="path135" />
    </g>
    <g
       text-rendering="geometricPrecision"
       stroke-miterlimit="1.45"
       shape-rendering="geometricPrecision"
       font-family="sans-serif"
       transform="matrix(1.5,0,0,1.5,567,583.5)"
       stroke-linecap="butt"
       id="g143">
      <text
         x="308.71191"
         xml:space="preserve"
         y="151.90041"
         clip-path="url(#clipPath2)"
         stroke="none"
         id="text139">Shard 2</text>
      <text
         x="311.3223"
         xml:space="preserve"
         y="165.86909"
         clip-path="url(#clipPath2)"
         stroke="none"
         id="text141">Leader</text>
    </g>
    <g
       fill="#339966"
       text-rendering="geometricPrecision"
       shape-rendering="geometricPrecision"
       transform="matrix(1.5,0,0,1.5,567,583.5)"
       stroke="#339966"
       id="g153">
      <path
         d="m 289.5,243.7305 h 85 v 19.5 q 0,10 -10,10 h -65 q -10,0 -10,-10 z"
         stroke="none"
         clip-path="url(#clipPath2)"
         id="path145" />
      <path
         fill="url(#linearGradient5)"
         d="m 289.5,226.2305 q 0,-10 10,-10 h 65 q 10,0 10,10 v 18.5 h -85 z"
         clip-path="url(#clipPath2)"
         stroke="none"
         id="path147"
         style="fill:url(#linearGradient5)" />
      <path
         fill="none"
         d="m 291.5,226.2305 q 0,-8 8,-8 h 65 q 8,0 8,8 v 37 q 0,8 -8,8 h -65 q -8,0 -8,-8 z"
         stroke-width="2"
         clip-path="url(#clipPath2)"
         stroke="#e0f0e8"
         id="path149" />
      <path
         fill="none"
         d="m 291.5,226.2305 q 0,-8 8,-8 h 65 q 8,0 8,8 v 37 q 0,8 -8,8 h -65 q -8,0 -8,-8 z"
         clip-path="url(#clipPath2)"
         id="path151" />
    </g>
    <g
       text-rendering="geometricPrecision"
       stroke-miterlimit="1.45"
       shape-rendering="geometricPrecision"
       font-family="sans-serif"
       transform="matrix(1.5,0,0,1.5,567,583.5)"
       stroke-linecap="butt"
       id="g159">
      <text
         x="308.71191"
         xml:space="preserve"
         y="241.90041"
         clip-path="url(#clipPath2)"
         stroke="none"
         id="text155">Shard 3</text>
      <text
         x="306.80759"
         xml:space="preserve"
         y="255.86909"
         clip-path="url(#clipPath2)"
         stroke="none"
         id="text157">Follower</text>
    </g>
    <g
       fill="#339966"
       text-rendering="geometricPrecision"
       shape-rendering="geometricPrecision"
       transform="matrix(1.5,0,0,1.5,567,583.5)"
       stroke="#339966"
       id="g169">
      <path
         d="m 289.5,63.7305 h 85 v 19.5 q 0,10 -10,10 h -65 q -10,0 -10,-10 z"
         stroke="none"
         clip-path="url(#clipPath2)"
         id="path161" />
      <path
         fill="url(#linearGradient6)"
         d="m 289.5,46.2305 q 0,-10 10,-10 h 65 q 10,0 10,10 v 18.5 h -85 z"
         clip-path="url(#clipPath2)"
         stroke="none"
         id="path163"
         style="fill:url(#linearGradient6)" />
      <path
         fill="none"
         d="m 291.5,46.2305 q 0,-8 8,-8 h 65 q 8,0 8,8 v 37 q 0,8 -8,8 h -65 q -8,0 -8,-8 z"
         stroke-width="2"
         clip-path="url(#clipPath2)"
         stroke="#e0f0e8"
         id="path165" />
      <path
         fill="none"
         d="m 291.5,46.2305 q 0,-8 8,-8 h 65 q 8,0 8,8 v 37 q 0,8 -8,8 h -65 q -8,0 -8,-8 z"
         clip-path="url(#clipPath2)"
         id="path167" />
    </g>
    <g
       text-rendering="geometricPrecision"
       stroke-miterlimit="1.45"
       shape-rendering="geometricPrecision"
       font-family="sans-serif"
       transform="matrix(1.5,0,0,1.5,567,583.5)"
       stroke-linecap="butt"
       id="g175">
      <text
         x="308.71191"
         xml:space="preserve"
         y="61.900398"
         clip-path="url(#clipPath2)"
         stroke="none"
         id="text171">Shard 1</text>
      <text
         x="306.80759"
         xml:space="preserve"
         y="75.869102"
         clip-path="url(#clipPath2)"
         stroke="none"
         id="text173">Follower</text>
    </g>
    <g
       fill="#f5f5f5"
       text-rendering="geometricPrecision"
       shape-rendering="geometricPrecision"
       transform="matrix(1.5,0,0,1.5,567,583.5)"
       stroke="#f5f5f5"
       id="g181">
      <rect
         x="419.5"
         y="-0.2305"
         clip-path="url(#clipPath2)"
         width="115"
         rx="4"
         ry="4"
         height="288.46091"
         stroke="none"
         id="rect177" />
      <rect
         x="419.5"
         y="-0.2305"
         clip-path="url(#clipPath2)"
         fill="#ebebeb"
         width="115"
         height="21.460899"
         stroke="none"
         id="rect179" />
    </g>
    <g
       font-size="15px"
       stroke-linecap="butt"
       transform="matrix(1.5,0,0,1.5,567,583.5)"
       text-rendering="geometricPrecision"
       font-family="sans-serif"
       shape-rendering="geometricPrecision"
       stroke-miterlimit="1.45"
       id="g187">
      <text
         x="495.65921"
         xml:space="preserve"
         y="15.6929"
         clip-path="url(#clipPath2)"
         stroke="none"
         id="text183">UD 3</text>
      <rect
         x="419.5"
         y="-0.2305"
         clip-path="url(#clipPath2)"
         fill="none"
         width="115"
         stroke-dasharray="6, 2"
         rx="4"
         ry="4"
         height="288.46091"
         id="rect185" />
    </g>
    <g
       fill="#339966"
       text-rendering="geometricPrecision"
       shape-rendering="geometricPrecision"
       transform="matrix(1.5,0,0,1.5,567,583.5)"
       stroke="#339966"
       id="g197">
      <path
         d="m 434.5,153.7305 h 85 v 19.5 q 0,10 -10,10 h -65 q -10,0 -10,-10 z"
         stroke="none"
         clip-path="url(#clipPath2)"
         id="path189" />
      <path
         fill="url(#linearGradient7)"
         d="m 434.5,136.2305 q 0,-10 10,-10 h 65 q 10,0 10,10 v 18.5 h -85 z"
         clip-path="url(#clipPath2)"
         stroke="none"
         id="path191"
         style="fill:url(#linearGradient7)" />
      <path
         fill="none"
         d="m 436.5,136.2305 q 0,-8 8,-8 h 65 q 8,0 8,8 v 37 q 0,8 -8,8 h -65 q -8,0 -8,-8 z"
         stroke-width="2"
         clip-path="url(#clipPath2)"
         stroke="#e0f0e8"
         id="path193" />
      <path
         fill="none"
         d="m 436.5,136.2305 q 0,-8 8,-8 h 65 q 8,0 8,8 v 37 q 0,8 -8,8 h -65 q -8,0 -8,-8 z"
         clip-path="url(#clipPath2)"
         id="path195" />
    </g>
    <g
       text-rendering="geometricPrecision"
       stroke-miterlimit="1.45"
       shape-rendering="geometricPrecision"
       font-family="sans-serif"
       transform="matrix(1.5,0,0,1.5,567,583.5)"
       stroke-linecap="butt"
       id="g203">
      <text
         x="453.71191"
         xml:space="preserve"
         y="151.90041"
         clip-path="url(#clipPath2)"
         stroke="none"
         id="text199">Shard 2</text>
      <text
         x="451.80759"
         xml:space="preserve"
         y="165.86909"
         clip-path="url(#clipPath2)"
         stroke="none"
         id="text201">Follower</text>
    </g>
    <g
       fill="#339966"
       text-rendering="geometricPrecision"
       shape-rendering="geometricPrecision"
       transform="matrix(1.5,0,0,1.5,567,583.5)"
       stroke="#339966"
       id="g213">
      <path
         d="m 434.5,243.7305 h 85 v 19.5 q 0,10 -10,10 h -65 q -10,0 -10,-10 z"
         stroke="none"
         clip-path="url(#clipPath2)"
         id="path205" />
      <path
         fill="url(#linearGradient8)"
         d="m 434.5,226.2305 q 0,-10 10,-10 h 65 q 10,0 10,10 v 18.5 h -85 z"
         clip-path="url(#clipPath2)"
         stroke="none"
         id="path207"
         style="fill:url(#linearGradient8)" />
      <path
         fill="none"
         d="m 436.5,226.2305 q 0,-8 8,-8 h 65 q 8,0 8,8 v 37 q 0,8 -8,8 h -65 q -8,0 -8,-8 z"
         stroke-width="2"
         clip-path="url(#clipPath2)"
         stroke="#e0f0e8"
         id="path209" />
      <path
         fill="none"
         d="m 436.5,226.2305 q 0,-8 8,-8 h 65 q 8,0 8,8 v 37 q 0,8 -8,8 h -65 q -8,0 -8,-8 z"
         clip-path="url(#clipPath2)"
         id="path211" />
    </g>
    <g
       text-rendering="geometricPrecision"
       stroke-miterlimit="1.45"
       shape-rendering="geometricPrecision"
       font-family="sans-serif"
       transform="matrix(1.5,0,0,1.5,567,583.5)"
       stroke-linecap="butt"
       id="g219">
      <text
         x="453.71191"
         xml:space="preserve"
         y="241.90041"
         clip-path="url(#clipPath2)"
         stroke="none"
         id="text215">Shard 3</text>
      <text
         x="451.80759"
         xml:space="preserve"
         y="255.86909"
         clip-path="url(#clipPath2)"
         stroke="none"
         id="text217">Follower</text>
    </g>
    <g
       fill="#339966"
       text-rendering="geometricPrecision"
       shape-rendering="geometricPrecision"
       transform="matrix(1.5,0,0,1.5,567,583.5)"
       stroke="#339966"
       id="g229">
      <path
         d="m 434.5,63.7305 h 85 v 19.5 q 0,10 -10,10 h -65 q -10,0 -10,-10 z"
         stroke="none"
         clip-path="url(#clipPath2)"
         id="path221" />
      <path
         fill="url(#linearGradient9)"
         d="m 434.5,46.2305 q 0,-10 10,-10 h 65 q 10,0 10,10 v 18.5 h -85 z"
         clip-path="url(#clipPath2)"
         stroke="none"
         id="path223"
         style="fill:url(#linearGradient9)" />
      <path
         fill="none"
         d="m 436.5,46.2305 q 0,-8 8,-8 h 65 q 8,0 8,8 v 37 q 0,8 -8,8 h -65 q -8,0 -8,-8 z"
         stroke-width="2"
         clip-path="url(#clipPath2)"
         stroke="#e0f0e8"
         id="path225" />
      <path
         fill="none"
         d="m 436.5,46.2305 q 0,-8 8,-8 h 65 q 8,0 8,8 v 37 q 0,8 -8,8 h -65 q -8,0 -8,-8 z"
         clip-path="url(#clipPath2)"
         id="path227" />
    </g>
    <g
       text-rendering="geometricPrecision"
       stroke-miterlimit="1.45"
       shape-rendering="geometricPrecision"
       font-family="sans-serif"
       transform="matrix(1.5,0,0,1.5,567,583.5)"
       stroke-linecap="butt"
       id="g235">
      <text
         x="453.71191"
         xml:space="preserve"
         y="61.900398"
         clip-path="url(#clipPath2)"
         stroke="none"
         id="text231">Shard 1</text>
      <text
         x="451.80759"
         xml:space="preserve"
         y="75.869102"
         clip-path="url(#clipPath2)"
         stroke="none"
         id="text233">Follower</text>
    </g>
    <g
       text-rendering="geometricPrecision"
       stroke-miterlimit="1.45"
       shape-rendering="geometricPrecision"
       transform="matrix(1.5,0,0,1.5,567,583.5)"
       stroke-linecap="butt"
       id="g249">
      <rect
         fill="none"
         x="115.5"
         width="433"
         height="78"
         y="25.730499"
         clip-path="url(#clipPath2)"
         id="rect237" />
      <text
         x="554.5"
         xml:space="preserve"
         y="68.884804"
         clip-path="url(#clipPath2)"
         font-family="sans-serif"
         stroke="none"
         id="text239">Raft Group for Shard 1</text>
      <rect
         fill="none"
         x="115.5"
         width="433"
         height="78"
         y="115.7305"
         clip-path="url(#clipPath2)"
         id="rect241" />
      <text
         x="554.5"
         xml:space="preserve"
         y="158.8848"
         clip-path="url(#clipPath2)"
         font-family="sans-serif"
         stroke="none"
         id="text243">Raft Group for Shard 2</text>
      <rect
         fill="none"
         x="115.5"
         width="433"
         height="78"
         y="205.7305"
         clip-path="url(#clipPath2)"
         id="rect245" />
      <text
         x="554.5"
         xml:space="preserve"
         y="248.8848"
         clip-path="url(#clipPath2)"
         font-family="sans-serif"
         stroke="none"
         id="text247">Raft Group for Shard 3</text>
    </g>
  </g>
</svg>
